<svg xmlns="http://www.w3.org/2000/svg" xmlns:xlink="http://www.w3.org/1999/xlink" width="300" zoomAndPan="magnify" viewBox="0 0 224.87999 60" height="80" preserveAspectRatio="xMidYMid meet" version="1.0"><defs><g/></defs><g fill="#ffffff" fill-opacity="1"><g transform="translate(0.451204, 40.473512)"><g><path d="M 2.324219 -32.492188 L 2.324219 -25.148438 L 17.199219 -25.148438 L 17.199219 -7.34375 L 9.667969 -7.34375 L 9.667969 -12.550781 L 2.324219 -12.550781 L 2.324219 0.046875 L 24.589844 0.046875 L 24.589844 -32.492188 Z M 2.324219 -32.492188 "/></g></g></g><g fill="#ffffff" fill-opacity="1"><g transform="translate(27.361241, 40.473512)"><g><path d="M 22.871094 -25.148438 L 22.871094 -32.492188 L 1.859375 -32.492188 L 1.859375 -25.148438 L 14.503906 -25.148438 L 1.859375 -7.34375 L 1.859375 0.046875 L 22.871094 0.046875 L 22.871094 -7.34375 L 10.132812 -7.34375 Z M 22.871094 -25.148438 "/></g></g></g><g fill="#ffffff" fill-opacity="1"><g transform="translate(52.133354, 40.473512)"><g><path d="M 2.324219 -32.492188 L 2.324219 0.046875 L 24.589844 0.046875 L 24.589844 -32.492188 Z M 17.199219 -7.34375 L 9.667969 -7.34375 L 9.667969 -25.148438 L 17.199219 -25.148438 Z M 17.199219 -7.34375 "/></g></g></g><g fill="#ffffff" fill-opacity="1"><g transform="translate(79.043391, 40.473512)"><g><path d="M 17.199219 -32.492188 L 17.199219 -16.039062 L 9.667969 -32.492188 L 2.324219 -32.492188 L 2.324219 0.046875 L 9.667969 0.046875 L 9.667969 -16.410156 L 17.199219 0.046875 L 24.589844 0.046875 L 24.589844 -32.492188 Z M 17.199219 -32.492188 "/></g></g></g><g fill="#ffffff" fill-opacity="1"><g transform="translate(105.953428, 40.473512)"><g/></g></g><g fill="#ffffff" fill-opacity="1"><g transform="translate(119.478159, 40.473512)"><g><path d="M 23.429688 -32.492188 L 1.164062 -32.492188 L 1.164062 -25.148438 L 8.601562 -25.148438 L 8.601562 0.046875 L 15.945312 0.046875 L 15.945312 -25.148438 L 23.429688 -25.148438 Z M 23.429688 -32.492188 "/></g></g></g><g fill="#ffffff" fill-opacity="1"><g transform="translate(144.110834, 40.473512)"><g><path d="M 24.589844 -25.148438 L 24.589844 -32.492188 L 2.324219 -32.492188 L 2.324219 0.046875 L 24.589844 0.046875 L 24.589844 -7.34375 L 9.667969 -7.34375 L 9.667969 -12.550781 L 17.199219 -12.550781 L 17.199219 -19.941406 L 9.667969 -19.941406 L 9.667969 -25.148438 Z M 24.589844 -25.148438 "/></g></g></g><g fill="#ffffff" fill-opacity="1"><g transform="translate(171.020871, 40.473512)"><g><path d="M 2.324219 -32.492188 L 2.324219 0.046875 L 24.589844 0.046875 L 24.589844 -9.667969 L 17.199219 -9.667969 L 17.199219 -7.34375 L 9.667969 -7.34375 L 9.667969 -25.148438 L 17.199219 -25.148438 L 17.199219 -22.824219 L 24.589844 -22.824219 L 24.589844 -32.492188 Z M 2.324219 -32.492188 "/></g></g></g><g fill="#ffffff" fill-opacity="1"><g transform="translate(197.930908, 40.473512)"><g><path d="M 16.78125 -32.492188 L 16.78125 -19.941406 L 9.667969 -19.941406 L 9.667969 -32.492188 L 2.324219 -32.492188 L 2.324219 0.046875 L 9.667969 0.046875 L 9.667969 -12.550781 L 16.78125 -12.550781 L 16.78125 0.046875 L 24.171875 0.046875 L 24.171875 -32.492188 Z M 16.78125 -32.492188 "/></g></g></g><path fill="#ffa217" d="M 78.207031 46.886719 L 146.6875 46.886719 L 146.6875 55.019531 L 78.207031 55.019531 L 78.207031 46.886719 " fill-opacity="1" fill-rule="nonzero"/><path fill="#ffa217" d="M 78.195312 46.886719 C 75.949219 46.886719 74.128906 48.707031 74.128906 50.953125 C 74.128906 53.199219 75.949219 55.019531 78.195312 55.019531 C 80.441406 55.019531 82.261719 53.199219 82.261719 50.953125 C 82.261719 48.707031 80.441406 46.886719 78.195312 46.886719 " fill-opacity="1" fill-rule="nonzero"/><path fill="#ffa217" d="M 146.667969 46.886719 C 144.421875 46.886719 142.601562 48.707031 142.601562 50.953125 C 142.601562 53.199219 144.421875 55.019531 146.667969 55.019531 C 148.910156 55.019531 150.730469 53.199219 150.730469 50.953125 C 150.730469 48.707031 148.910156 46.886719 146.667969 46.886719 " fill-opacity="1" fill-rule="nonzero"/><g fill="#000000" fill-opacity="1"><g transform="translate(80.824609, 52.35056)"><g><path d="M 1 -2.171875 L 1 -1.71875 L 1.890625 -1.71875 L 1.890625 -1.125 L 1 -1.125 L 1 -0.625 L 2.015625 -0.625 L 2.015625 0 L 0.21875 0 L 0.21875 -2.796875 L 2.015625 -2.796875 L 2.015625 -2.171875 Z M 1 -2.171875 "/></g></g></g><g fill="#000000" fill-opacity="1"><g transform="translate(83.202107, 52.35056)"><g><path d="M 2 -0.453125 L 1 -0.453125 L 0.84375 0 L 0.03125 0 L 1.046875 -2.796875 L 1.953125 -2.796875 L 2.96875 0 L 2.140625 0 Z M 1.796875 -1.046875 L 1.5 -1.953125 L 1.203125 -1.046875 Z M 1.796875 -1.046875 "/></g></g></g><g fill="#000000" fill-opacity="1"><g transform="translate(86.402574, 52.35056)"><g><path d="M 2.328125 -2.796875 L 2.328125 -2.171875 L 1.578125 -2.171875 L 1.578125 0 L 0.8125 0 L 0.8125 -2.171875 L 0.0625 -2.171875 L 0.0625 -2.796875 Z M 2.328125 -2.796875 "/></g></g></g><g fill="#000000" fill-opacity="1"><g transform="translate(89.002711, 52.35056)"><g/></g></g><g fill="#000000" fill-opacity="1"><g transform="translate(89.960885, 52.35056)"><g><path d="M 1.9375 -1.703125 L 1.9375 -1.046875 L 0.140625 -1.046875 L 0.140625 -1.703125 Z M 1.9375 -1.703125 "/></g></g></g><g fill="#000000" fill-opacity="1"><g transform="translate(92.457653, 52.35056)"><g/></g></g><g fill="#000000" fill-opacity="1"><g transform="translate(93.415827, 52.35056)"><g><path d="M 1.28125 0.03125 C 0.957031 0.03125 0.6875 -0.046875 0.46875 -0.203125 C 0.257812 -0.359375 0.148438 -0.582031 0.140625 -0.875 L 0.96875 -0.875 C 0.976562 -0.769531 1.003906 -0.695312 1.046875 -0.65625 C 1.097656 -0.613281 1.164062 -0.59375 1.25 -0.59375 C 1.320312 -0.59375 1.378906 -0.609375 1.421875 -0.640625 C 1.472656 -0.671875 1.5 -0.722656 1.5 -0.796875 C 1.5 -0.867188 1.457031 -0.925781 1.375 -0.96875 C 1.300781 -1.019531 1.179688 -1.070312 1.015625 -1.125 C 0.828125 -1.1875 0.675781 -1.242188 0.5625 -1.296875 C 0.445312 -1.359375 0.347656 -1.441406 0.265625 -1.546875 C 0.179688 -1.660156 0.140625 -1.804688 0.140625 -1.984375 C 0.140625 -2.171875 0.1875 -2.328125 0.28125 -2.453125 C 0.375 -2.578125 0.5 -2.671875 0.65625 -2.734375 C 0.8125 -2.804688 0.988281 -2.84375 1.1875 -2.84375 C 1.519531 -2.84375 1.78125 -2.765625 1.96875 -2.609375 C 2.164062 -2.460938 2.269531 -2.25 2.28125 -1.96875 L 1.4375 -1.96875 C 1.4375 -2.050781 1.410156 -2.113281 1.359375 -2.15625 C 1.316406 -2.195312 1.253906 -2.21875 1.171875 -2.21875 C 1.117188 -2.21875 1.070312 -2.203125 1.03125 -2.171875 C 0.988281 -2.140625 0.96875 -2.09375 0.96875 -2.03125 C 0.96875 -1.976562 0.988281 -1.929688 1.03125 -1.890625 C 1.070312 -1.847656 1.125 -1.8125 1.1875 -1.78125 C 1.25 -1.757812 1.335938 -1.726562 1.453125 -1.6875 C 1.628906 -1.625 1.773438 -1.5625 1.890625 -1.5 C 2.015625 -1.445312 2.117188 -1.363281 2.203125 -1.25 C 2.285156 -1.144531 2.328125 -1.007812 2.328125 -0.84375 C 2.328125 -0.675781 2.285156 -0.523438 2.203125 -0.390625 C 2.117188 -0.265625 1.992188 -0.160156 1.828125 -0.078125 C 1.671875 -0.00390625 1.488281 0.03125 1.28125 0.03125 Z M 1.28125 0.03125 "/></g></g></g><g fill="#000000" fill-opacity="1"><g transform="translate(96.079576, 52.35056)"><g><path d="M 1 -0.59375 L 1.875 -0.59375 L 1.875 0 L 0.21875 0 L 0.21875 -2.796875 L 1 -2.796875 Z M 1 -0.59375 "/></g></g></g><g fill="#000000" fill-opacity="1"><g transform="translate(98.23046, 52.35056)"><g><path d="M 1 -2.171875 L 1 -1.71875 L 1.890625 -1.71875 L 1.890625 -1.125 L 1 -1.125 L 1 -0.625 L 2.015625 -0.625 L 2.015625 0 L 0.21875 0 L 0.21875 -2.796875 L 2.015625 -2.796875 L 2.015625 -2.171875 Z M 1 -2.171875 "/></g></g></g><g fill="#000000" fill-opacity="1"><g transform="translate(100.607956, 52.35056)"><g><path d="M 1 -2.171875 L 1 -1.71875 L 1.890625 -1.71875 L 1.890625 -1.125 L 1 -1.125 L 1 -0.625 L 2.015625 -0.625 L 2.015625 0 L 0.21875 0 L 0.21875 -2.796875 L 2.015625 -2.796875 L 2.015625 -2.171875 Z M 1 -2.171875 "/></g></g></g><g fill="#000000" fill-opacity="1"><g transform="translate(102.985453, 52.35056)"><g><path d="M 2.4375 -1.859375 C 2.4375 -1.691406 2.394531 -1.535156 2.3125 -1.390625 C 2.238281 -1.253906 2.117188 -1.144531 1.953125 -1.0625 C 1.796875 -0.976562 1.609375 -0.9375 1.390625 -0.9375 L 1 -0.9375 L 1 0 L 0.21875 0 L 0.21875 -2.796875 L 1.390625 -2.796875 C 1.609375 -2.796875 1.796875 -2.753906 1.953125 -2.671875 C 2.109375 -2.597656 2.226562 -2.488281 2.3125 -2.34375 C 2.394531 -2.207031 2.4375 -2.046875 2.4375 -1.859375 Z M 1.3125 -1.5625 C 1.53125 -1.5625 1.640625 -1.660156 1.640625 -1.859375 C 1.640625 -2.066406 1.53125 -2.171875 1.3125 -2.171875 L 1 -2.171875 L 1 -1.5625 Z M 1.3125 -1.5625 "/></g></g></g><g fill="#000000" fill-opacity="1"><g transform="translate(105.712812, 52.35056)"><g/></g></g><g fill="#000000" fill-opacity="1"><g transform="translate(106.670987, 52.35056)"><g><path d="M 1.9375 -1.703125 L 1.9375 -1.046875 L 0.140625 -1.046875 L 0.140625 -1.703125 Z M 1.9375 -1.703125 "/></g></g></g><g fill="#000000" fill-opacity="1"><g transform="translate(109.167755, 52.35056)"><g/></g></g><g fill="#000000" fill-opacity="1"><g transform="translate(110.125929, 52.35056)"><g><path d="M 2.71875 -2.796875 L 2.71875 0 L 1.953125 0 L 1.953125 -1.125 L 1 -1.125 L 1 0 L 0.21875 0 L 0.21875 -2.796875 L 1 -2.796875 L 1 -1.75 L 1.953125 -1.75 L 1.953125 -2.796875 Z M 2.71875 -2.796875 "/></g></g></g><g fill="#000000" fill-opacity="1"><g transform="translate(113.278687, 52.35056)"><g><path d="M 2 -0.453125 L 1 -0.453125 L 0.84375 0 L 0.03125 0 L 1.046875 -2.796875 L 1.953125 -2.796875 L 2.96875 0 L 2.140625 0 Z M 1.796875 -1.046875 L 1.5 -1.953125 L 1.203125 -1.046875 Z M 1.796875 -1.046875 "/></g></g></g><g fill="#000000" fill-opacity="1"><g transform="translate(116.479155, 52.35056)"><g><path d="M 0.125 -1.40625 C 0.125 -1.675781 0.179688 -1.921875 0.296875 -2.140625 C 0.410156 -2.359375 0.570312 -2.523438 0.78125 -2.640625 C 1 -2.765625 1.242188 -2.828125 1.515625 -2.828125 C 1.867188 -2.828125 2.164062 -2.734375 2.40625 -2.546875 C 2.644531 -2.359375 2.796875 -2.101562 2.859375 -1.78125 L 2.03125 -1.78125 C 1.976562 -1.882812 1.90625 -1.960938 1.8125 -2.015625 C 1.726562 -2.078125 1.628906 -2.109375 1.515625 -2.109375 C 1.328125 -2.109375 1.179688 -2.039062 1.078125 -1.90625 C 0.972656 -1.78125 0.921875 -1.613281 0.921875 -1.40625 C 0.921875 -1.1875 0.972656 -1.007812 1.078125 -0.875 C 1.179688 -0.75 1.328125 -0.6875 1.515625 -0.6875 C 1.628906 -0.6875 1.726562 -0.710938 1.8125 -0.765625 C 1.90625 -0.828125 1.976562 -0.910156 2.03125 -1.015625 L 2.859375 -1.015625 C 2.796875 -0.703125 2.644531 -0.453125 2.40625 -0.265625 C 2.164062 -0.078125 1.867188 0.015625 1.515625 0.015625 C 1.242188 0.015625 1 -0.0390625 0.78125 -0.15625 C 0.570312 -0.28125 0.410156 -0.445312 0.296875 -0.65625 C 0.179688 -0.875 0.125 -1.125 0.125 -1.40625 Z M 0.125 -1.40625 "/></g></g></g><g fill="#000000" fill-opacity="1"><g transform="translate(119.691549, 52.35056)"><g><path d="M 1.875 0 L 1 -1.21875 L 1 0 L 0.21875 0 L 0.21875 -2.796875 L 1 -2.796875 L 1 -1.59375 L 1.875 -2.796875 L 2.765625 -2.796875 L 1.734375 -1.4375 L 2.8125 0 Z M 1.875 0 "/></g></g></g><g fill="#000000" fill-opacity="1"><g transform="translate(122.776721, 52.35056)"><g/></g></g><g fill="#000000" fill-opacity="1"><g transform="translate(123.734894, 52.35056)"><g><path d="M 1.9375 -1.703125 L 1.9375 -1.046875 L 0.140625 -1.046875 L 0.140625 -1.703125 Z M 1.9375 -1.703125 "/></g></g></g><g fill="#000000" fill-opacity="1"><g transform="translate(126.231662, 52.35056)"><g/></g></g><g fill="#000000" fill-opacity="1"><g transform="translate(127.189836, 52.35056)"><g><path d="M 1.640625 0 L 1.078125 -1.03125 L 1 -1.03125 L 1 0 L 0.21875 0 L 0.21875 -2.796875 L 1.453125 -2.796875 C 1.671875 -2.796875 1.859375 -2.753906 2.015625 -2.671875 C 2.171875 -2.597656 2.289062 -2.492188 2.375 -2.359375 C 2.457031 -2.222656 2.5 -2.070312 2.5 -1.90625 C 2.5 -1.707031 2.441406 -1.535156 2.328125 -1.390625 C 2.222656 -1.253906 2.070312 -1.15625 1.875 -1.09375 L 2.515625 0 Z M 1 -1.5625 L 1.390625 -1.5625 C 1.492188 -1.5625 1.570312 -1.585938 1.625 -1.640625 C 1.675781 -1.691406 1.703125 -1.765625 1.703125 -1.859375 C 1.703125 -1.953125 1.675781 -2.019531 1.625 -2.0625 C 1.570312 -2.113281 1.492188 -2.140625 1.390625 -2.140625 L 1 -2.140625 Z M 1 -1.5625 "/></g></g></g><g fill="#000000" fill-opacity="1"><g transform="translate(130.016589, 52.35056)"><g><path d="M 1 -2.171875 L 1 -1.71875 L 1.890625 -1.71875 L 1.890625 -1.125 L 1 -1.125 L 1 -0.625 L 2.015625 -0.625 L 2.015625 0 L 0.21875 0 L 0.21875 -2.796875 L 2.015625 -2.796875 L 2.015625 -2.171875 Z M 1 -2.171875 "/></g></g></g><g fill="#000000" fill-opacity="1"><g transform="translate(132.394085, 52.35056)"><g><path d="M 2.4375 -1.859375 C 2.4375 -1.691406 2.394531 -1.535156 2.3125 -1.390625 C 2.238281 -1.253906 2.117188 -1.144531 1.953125 -1.0625 C 1.796875 -0.976562 1.609375 -0.9375 1.390625 -0.9375 L 1 -0.9375 L 1 0 L 0.21875 0 L 0.21875 -2.796875 L 1.390625 -2.796875 C 1.609375 -2.796875 1.796875 -2.753906 1.953125 -2.671875 C 2.109375 -2.597656 2.226562 -2.488281 2.3125 -2.34375 C 2.394531 -2.207031 2.4375 -2.046875 2.4375 -1.859375 Z M 1.3125 -1.5625 C 1.53125 -1.5625 1.640625 -1.660156 1.640625 -1.859375 C 1.640625 -2.066406 1.53125 -2.171875 1.3125 -2.171875 L 1 -2.171875 L 1 -1.5625 Z M 1.3125 -1.5625 "/></g></g></g><g fill="#000000" fill-opacity="1"><g transform="translate(135.121446, 52.35056)"><g><path d="M 2.140625 0.46875 L 1.828125 0 C 1.742188 0.0195312 1.65625 0.03125 1.5625 0.03125 C 1.300781 0.03125 1.0625 -0.03125 0.84375 -0.15625 C 0.625 -0.28125 0.445312 -0.453125 0.3125 -0.671875 C 0.1875 -0.890625 0.125 -1.132812 0.125 -1.40625 C 0.125 -1.6875 0.1875 -1.929688 0.3125 -2.140625 C 0.445312 -2.359375 0.625 -2.53125 0.84375 -2.65625 C 1.0625 -2.78125 1.300781 -2.84375 1.5625 -2.84375 C 1.820312 -2.84375 2.0625 -2.78125 2.28125 -2.65625 C 2.5 -2.53125 2.671875 -2.359375 2.796875 -2.140625 C 2.929688 -1.929688 3 -1.6875 3 -1.40625 C 3 -1.175781 2.953125 -0.960938 2.859375 -0.765625 C 2.765625 -0.578125 2.632812 -0.414062 2.46875 -0.28125 L 3.0625 0.46875 Z M 0.921875 -1.40625 C 0.921875 -1.1875 0.976562 -1.007812 1.09375 -0.875 C 1.207031 -0.75 1.363281 -0.6875 1.5625 -0.6875 C 1.757812 -0.6875 1.914062 -0.75 2.03125 -0.875 C 2.144531 -1.007812 2.203125 -1.1875 2.203125 -1.40625 C 2.203125 -1.632812 2.144531 -1.8125 2.03125 -1.9375 C 1.914062 -2.0625 1.757812 -2.125 1.5625 -2.125 C 1.363281 -2.125 1.207031 -2.0625 1.09375 -1.9375 C 0.976562 -1.8125 0.921875 -1.632812 0.921875 -1.40625 Z M 0.921875 -1.40625 "/></g></g></g><g fill="#000000" fill-opacity="1"><g transform="translate(138.453112, 52.35056)"><g><path d="M 2 -0.453125 L 1 -0.453125 L 0.84375 0 L 0.03125 0 L 1.046875 -2.796875 L 1.953125 -2.796875 L 2.96875 0 L 2.140625 0 Z M 1.796875 -1.046875 L 1.5 -1.953125 L 1.203125 -1.046875 Z M 1.796875 -1.046875 "/></g></g></g><g fill="#000000" fill-opacity="1"><g transform="translate(141.653578, 52.35056)"><g><path d="M 2.328125 -2.796875 L 2.328125 -2.171875 L 1.578125 -2.171875 L 1.578125 0 L 0.8125 0 L 0.8125 -2.171875 L 0.0625 -2.171875 L 0.0625 -2.796875 Z M 2.328125 -2.796875 "/></g></g></g></svg>